<svg xmlns="http://www.w3.org/2000/svg" version="1.1" xmlns:xlink="http://www.w3.org/1999/xlink" xmlns:svgjs="http://svgjs.dev/svgjs" width="1500" height="223" viewBox="0 0 1500 223"><g transform="matrix(1,0,0,1,3.829551716323749,3.6070120182264986)"><svg viewBox="0 0 396 59" data-background-color="#ffffff" preserveAspectRatio="xMidYMid meet" height="223" width="1500" xmlns="http://www.w3.org/2000/svg" xmlns:xlink="http://www.w3.org/1999/xlink"><g id="tight-bounds" transform="matrix(1,0,0,1,0.27813462206688655,0.3444093819736622)"><svg viewBox="0 0 395.52 58.311181236052676" height="58.311181236052676" width="395.52"><g><svg viewBox="0 0 485.0738030974677 71.514023172729" height="58.311181236052676" width="395.52"><g><rect width="4.666576275100301" height="52.005494420110445" x="72.67105856294258" y="9.754264376309276" fill="#fff" opacity="1" stroke-width="0" stroke="transparent" fill-opacity="1" class="rect-yte-0" data-fill-palette-color="primary" rx="1%" id="yte-0" data-palette-color="#4a596d"></rect></g><g transform="matrix(1,0,0,1,89.55380309746775,9.883631277851837)"><svg viewBox="0 0 395.52 51.74676061702532" height="51.74676061702532" width="395.52"><g id="textblocktransform"><svg viewBox="0 0 395.52 51.74676061702532" height="51.74676061702532" width="395.52" id="textblock"><g><svg viewBox="0 0 395.52 51.74676061702532" height="51.74676061702532" width="395.52"><g transform="matrix(1,0,0,1,0,0)"><svg width="395.52" viewBox="0.48 -33.8 262.59 34.349999999999994" height="51.74676061702532" data-palette-color="#4a596d"><g class="wordmark-text-0" data-fill-palette-color="primary" id="text-0"><path d="M11.5-33.8L11.5-33.8Q13.38-33.8 14.86-33.46 16.35-33.13 17.6-32.63L17.6-32.63 18-29.45Q16.78-29.9 15.54-30.16 14.3-30.43 12.75-30.43L12.75-30.43Q10.88-30.43 9.74-29.94 8.6-29.45 8.11-28.56 7.63-27.68 7.63-26.43L7.63-26.43 7.63-26.3Q7.63-25.43 7.85-24.64 8.08-23.85 8.35-23.2L8.35-23.2 5.63-23.1 5.63-23.6Q4.85-24.2 4.26-25.28 3.68-26.35 3.68-27.78L3.68-27.78 3.68-27.9Q3.68-30.58 5.58-32.19 7.48-33.8 11.5-33.8ZM8.53 0L4.5 0 4.5-22.23 8.53-22.23 8.53 0ZM17.53-20.25L0.48-20.25 0.48-23.48 6.05-23.45 7.7-23.48 17.9-23.48 17.53-20.25ZM26.2 0L22.15 0 22.15-24.4 26.2-24.4 26.2 0ZM24.17-28.4L24.17-28.4Q22.92-28.4 22.31-29.06 21.7-29.73 21.7-30.88L21.7-30.88 21.7-31Q21.7-32.18 22.31-32.83 22.92-33.48 24.17-33.48L24.17-33.48Q25.42-33.48 26.05-32.83 26.67-32.18 26.67-31L26.67-31 26.67-30.88Q26.67-29.7 26.05-29.05 25.42-28.4 24.17-28.4ZM53.27 0L49.22 0 49.22-15.18Q49.22-17.15 48.68-18.57 48.15-20 46.93-20.79 45.72-21.58 43.62-21.58L43.62-21.58Q41.7-21.58 40.28-20.85 38.87-20.13 38-18.89 37.12-17.65 36.77-16.07L36.77-16.07 36.05-18.95 36.92-18.95Q37.32-20.6 38.32-21.96 39.32-23.33 41.01-24.14 42.7-24.95 45.15-24.95L45.15-24.95Q48.05-24.95 49.83-23.85 51.62-22.75 52.45-20.69 53.27-18.63 53.27-15.63L53.27-15.63 53.27 0ZM36.95 0L32.9 0 32.9-24.4 36.95-24.4 36.77-18.55 36.95-18.32 36.95 0ZM78.04 0L74.02 0 74.19-5.93 74.04-6.55 74.04-14.33 74.07-15.75Q74.07-18.73 72.56-20.15 71.04-21.58 67.77-21.58L67.77-21.58Q65.14-21.58 62.96-20.83 60.77-20.08 59.07-19.07L59.07-19.07 59.44-22.53Q60.39-23.1 61.71-23.66 63.02-24.23 64.71-24.6 66.39-24.98 68.42-24.98L68.42-24.98Q71.04-24.98 72.88-24.34 74.72-23.7 75.86-22.5 76.99-21.3 77.52-19.6 78.04-17.9 78.04-15.8L78.04-15.8 78.04 0ZM65.62 0.53L65.62 0.53Q61.99 0.53 60.06-1.24 58.12-3 58.12-6.28L58.12-6.28 58.12-7Q58.12-10.38 60.21-12.04 62.29-13.7 66.84-14.35L66.84-14.35 74.57-15.45 74.79-12.5 67.34-11.43Q64.54-11.03 63.34-10.06 62.14-9.1 62.14-7.23L62.14-7.23 62.14-6.83Q62.14-4.9 63.33-3.88 64.52-2.85 66.89-2.85L66.89-2.85Q68.99-2.85 70.49-3.58 71.99-4.3 72.92-5.53 73.84-6.75 74.17-8.25L74.17-8.25 74.79-5.5 74.02-5.5Q73.67-3.9 72.71-2.53 71.74-1.15 70.02-0.31 68.29 0.53 65.62 0.53ZM104.62 0L100.57 0 100.57-15.18Q100.57-17.15 100.03-18.57 99.49-20 98.28-20.79 97.07-21.58 94.97-21.58L94.97-21.58Q93.04-21.58 91.63-20.85 90.22-20.13 89.34-18.89 88.47-17.65 88.12-16.07L88.12-16.07 87.39-18.95 88.27-18.95Q88.67-20.6 89.67-21.96 90.67-23.33 92.35-24.14 94.04-24.95 96.49-24.95L96.49-24.95Q99.39-24.95 101.18-23.85 102.97-22.75 103.79-20.69 104.62-18.63 104.62-15.63L104.62-15.63 104.62 0ZM88.29 0L84.24 0 84.24-24.4 88.29-24.4 88.12-18.55 88.29-18.32 88.29 0ZM120.29 0.55L120.29 0.55Q115.04 0.55 112.48-2.29 109.91-5.13 109.91-10.33L109.91-10.33 109.91-14.13Q109.91-19.35 112.49-22.16 115.06-24.98 120.29-24.98L120.29-24.98Q121.84-24.98 123.11-24.69 124.39-24.4 125.4-23.94 126.41-23.48 127.11-22.98L127.11-22.98 127.46-19.45Q126.29-20.35 124.68-20.98 123.06-21.6 120.89-21.6L120.89-21.6Q117.39-21.6 115.68-19.66 113.96-17.73 113.96-14.03L113.96-14.03 113.96-10.43Q113.96-6.8 115.68-4.85 117.39-2.9 120.89-2.9L120.89-2.9Q123.14-2.9 124.78-3.53 126.41-4.15 127.69-5.05L127.69-5.05 127.31-1.48Q126.21-0.73 124.44-0.09 122.66 0.55 120.29 0.55ZM142.84 0.55L142.84 0.55Q137.26 0.55 134.44-2.18 131.61-4.9 131.61-9.98L131.61-9.98 131.61-14.33Q131.61-19.48 134.24-22.26 136.86-25.05 141.91-25.05L141.91-25.05Q145.31-25.05 147.59-23.79 149.86-22.53 151.01-20.2 152.16-17.88 152.16-14.65L152.16-14.65 152.16-13.75Q152.16-12.95 152.1-12.15 152.04-11.35 151.94-10.58L151.94-10.58 148.21-10.58Q148.26-11.78 148.27-12.85 148.29-13.93 148.29-14.83L148.29-14.83Q148.29-17.05 147.57-18.59 146.86-20.13 145.45-20.94 144.04-21.75 141.91-21.75L141.91-21.75Q138.76-21.75 137.19-19.93 135.61-18.1 135.61-14.7L135.61-14.7 135.61-12.38 135.64-11.88 135.64-9.55Q135.64-8.03 136.09-6.8 136.54-5.58 137.5-4.69 138.46-3.8 139.95-3.34 141.44-2.88 143.49-2.88L143.49-2.88Q145.86-2.88 147.91-3.5 149.96-4.13 151.76-5.2L151.76-5.2 151.39-1.7Q149.76-0.68 147.61-0.06 145.46 0.55 142.84 0.55ZM151.09-10.58L133.74-10.58 133.74-13.63 151.09-13.63 151.09-10.58ZM166.43 0.5L166.43 0.5Q163.61 0.5 161.88-0.35 160.16-1.2 159.38-2.93 158.61-4.65 158.61-7.23L158.61-7.23 158.61-22.63 162.61-22.63 162.61-7.7Q162.61-5.3 163.71-4.16 164.81-3.03 167.41-3.03L167.41-3.03Q168.88-3.03 170.25-3.35 171.61-3.68 172.81-4.28L172.81-4.28 172.43-0.8Q171.26-0.2 169.68 0.15 168.11 0.5 166.43 0.5ZM172.18-20.8L154.61-20.8 154.61-24.05 172.56-24.05 172.18-20.8ZM162.51-23.65L158.63-23.65 158.61-30.5 162.68-31.03 162.51-23.65ZM181.18-14.93L181.18-14.93 180.26-18.05 181.26-18.1Q182.06-21.2 184.01-22.99 185.96-24.78 189.18-24.78L189.18-24.78Q189.98-24.78 190.62-24.65 191.26-24.53 191.76-24.35L191.76-24.35 192.01-20.43Q191.38-20.63 190.62-20.75 189.86-20.88 188.93-20.88L188.93-20.88Q186.18-20.88 184.14-19.35 182.11-17.82 181.18-14.93ZM181.38 0L177.33 0 177.33-24.4 181.28-24.4 181.08-17.2 181.38-16.9 181.38 0ZM214.48 0L210.45 0 210.63-5.93 210.48-6.55 210.48-14.33 210.5-15.75Q210.5-18.73 208.99-20.15 207.48-21.58 204.2-21.58L204.2-21.58Q201.58-21.58 199.39-20.83 197.2-20.08 195.5-19.07L195.5-19.07 195.88-22.53Q196.83-23.1 198.14-23.66 199.45-24.23 201.14-24.6 202.83-24.98 204.85-24.98L204.85-24.98Q207.48-24.98 209.32-24.34 211.15-23.7 212.29-22.5 213.43-21.3 213.95-19.6 214.48-17.9 214.48-15.8L214.48-15.8 214.48 0ZM202.05 0.53L202.05 0.53Q198.43 0.53 196.49-1.24 194.55-3 194.55-6.28L194.55-6.28 194.55-7Q194.55-10.38 196.64-12.04 198.73-13.7 203.28-14.35L203.28-14.35 211-15.45 211.23-12.5 203.78-11.43Q200.98-11.03 199.78-10.06 198.58-9.1 198.58-7.23L198.58-7.23 198.58-6.83Q198.58-4.9 199.77-3.88 200.95-2.85 203.33-2.85L203.33-2.85Q205.43-2.85 206.93-3.58 208.43-4.3 209.35-5.53 210.28-6.75 210.6-8.25L210.6-8.25 211.23-5.5 210.45-5.5Q210.1-3.9 209.14-2.53 208.18-1.15 206.45-0.31 204.73 0.53 202.05 0.53ZM230.08 0.55L230.08 0.55Q224.83 0.55 222.26-2.29 219.7-5.13 219.7-10.33L219.7-10.33 219.7-14.13Q219.7-19.35 222.28-22.16 224.85-24.98 230.08-24.98L230.08-24.98Q231.63-24.98 232.9-24.69 234.18-24.4 235.19-23.94 236.2-23.48 236.9-22.98L236.9-22.98 237.25-19.45Q236.08-20.35 234.46-20.98 232.85-21.6 230.68-21.6L230.68-21.6Q227.18-21.6 225.46-19.66 223.75-17.73 223.75-14.03L223.75-14.03 223.75-10.43Q223.75-6.8 225.46-4.85 227.18-2.9 230.68-2.9L230.68-2.9Q232.93-2.9 234.56-3.53 236.2-4.15 237.48-5.05L237.48-5.05 237.1-1.48Q236-0.73 234.23-0.09 232.45 0.55 230.08 0.55ZM263.07 0L258.22 0 248.57-11.38 246-11.38 246-14.53 248.57-14.53 257.82-24.4 262.62-24.4 251.55-12.63 251.55-13.6 263.07 0ZM246.4 0L242.37 0 242.37-33.13 246.4-33.13 246.4 0Z" fill="#fff" data-fill-palette-color="primary"></path></g></svg></g></svg></g></svg></g></svg></g><g><svg viewBox="0 0 60.4548903035177 71.514023172729" height="71.514023172729" width="60.4548903035177"><g><svg xmlns="http://www.w3.org/2000/svg" viewBox="5 2 23.67 28" x="0" y="0" height="71.514023172729" width="60.4548903035177" class="icon-icon-0" data-fill-palette-color="accent" id="icon-0"><g data-name="Layer 2" fill="#fff" data-fill-palette-color="accent"><path d="M27.67 11A1 1 0 0 0 27 11.27V9A3 3 0 0 0 24 6H23V5A3 3 0 0 0 20 2H12A3 3 0 0 0 9 5V6H8A3 3 0 0 0 5 9V23A3 3 0 0 0 8 26H9V27A3 3 0 0 0 12 30H20A3 3 0 0 0 23 27V26H24A3 3 0 0 0 27 23V14.73A1 1 0 0 0 27.67 15 1 1 0 0 0 28.67 14V12A1 1 0 0 0 27.67 11M11 5A1 1 0 0 1 12 4H20A1 1 0 0 1 21 5V6H11ZM21 27A1 1 0 0 1 20 28H12A1 1 0 0 1 11 27V26H21ZM25 23A1 1 0 0 1 24 24H8A1 1 0 0 1 7 23V9A1 1 0 0 1 8 8H24A1 1 0 0 1 25 9Z" fill="#fff" data-fill-palette-color="accent"></path><path d="M21.5 16H20L19.34 11.84A1 1 0 0 0 17.47 11.53L15.47 15.41 14.61 12.7A1 1 0 0 0 12.77 12.54L11.48 15H10.48A1 1 0 0 0 10.48 17H12.06A1 1 0 0 0 12.94 16.47L13.4 15.59 14.26 18.3A1 1 0 0 0 15.12 18.99H15.21A1 1 0 0 0 16.09 18.46L17.84 15.13 18.16 17.13A1 1 0 0 0 19.16 17.97H21.5A1 1 0 0 0 21.5 15.97Z" fill="#fff" data-fill-palette-color="accent"></path></g></svg></g></svg></g></svg></g><defs></defs></svg><rect width="395.52" height="58.311181236052676" fill="none" stroke="none" visibility="hidden"></rect></g></svg></g></svg>